<?xml version="1.0" encoding="UTF-8"?>
<svg id="Layer_1" data-name="Layer 1" xmlns="http://www.w3.org/2000/svg" viewBox="0 0 1080 1080">
  <defs>
    <style>
      .cls-1 {
        fill: #0065ba;
        stroke: #0065ba;
      }

      .cls-1, .cls-2, .cls-3, .cls-4 {
        stroke-miterlimit: 10;
      }

      .cls-5 {
        fill: none;
        stroke: #fff;
        stroke-width: 3px;
      }

      .cls-2 {
        fill: #00407b;
        stroke: #00407b;
      }

      .cls-3 {
        fill: #004079;
        stroke: #004079;
      }

      .cls-4 {
        fill: #0070a9;
        stroke: #0070a9;
      }
    </style>
  </defs>
  <g>
    <path class="cls-1" d="M898.7,258.1c-89.49,149.78-188.43,293.77-280.5,441.94-123.96,88.84-244.49,182.61-368.57,271.28-16.12,11.51-39,30.54-55.45,39.27-3.02,1.59-5.08,3.94-9.1,2.97l285.23-436.12c135.3-99.71,266.81-211.13,405.73-305.73,3.02-2.06,21.12-15.1,22.73-13.6h-.07ZM536.97,582.41c-70.43,8.4-59.44,115.48,10.43,109.63,70.25-5.9,61.06-118.12-10.43-109.63Z"/>
    <path class="cls-3" d="M290.8,982.76l46.96-30.48c43.29,23.94,88.46,43.29,137.65,51.78,276,47.64,504.84-208.49,427.11-477.77-12.13-42.03-33.01-78.82-56.56-115.18.09-2.7,26.84-42.29,29.75-45.05,2.17-2.06,2-3.55,5.46-1.26,1.73,1.15,17.94,25.76,20.68,29.99,167.28,258.3,20.09,611.66-282.44,664.31-95.04,16.53-247.11-6.37-324.05-68.81-2.56-2.09-5.35-3.55-4.52-7.52h-.04Z"/>
    <path class="cls-3" d="M462.58,211.81c0,17.97,2.79,36.77,11.01,52.83-99.41,15.39-186.99,74.13-244.08,155.71-92.39,132.07-88.84,313.92,12.1,440.12l-33.42,47.34c-89.37-101.29-119-243.88-88.52-374.83,36.83-158.38,179.32-299.76,342.91-321.17h0Z"/>
    <path class="cls-2" d="M521.61,16.42c47.05-3.61,97.06,6.49,137.68,30.6,13.33,7.93,40.23,23.35,31.81,41.88-12.07,26.58-44.17-4.49-59.18-12.31-57.15-29.72-132.04-28.13-188.43,2.64-13.51,7.37-38.12,32.6-52.45,13.57s17.71-38.91,32.1-47.17c29.16-16.68,64.93-26.67,98.5-29.25l-.03.03h0Z"/>
    <path class="cls-3" d="M795.18,284.53l-1.35,4.55-48.02,30.72c-41.82-26.11-88.4-46.93-137.86-52.95l11.04-55.07c64.29,10.66,122.2,37.27,176.18,72.75h.01Z"/>
    <path class="cls-2" d="M523.81,97.92c28.31-2.61,61.73,2.06,87.17,15.04,15.42,7.84,46.31,31.57,21.03,46.9-14.48,8.78-26.87-6.46-40.18-12.33-29.84-13.16-61.97-14.27-92.98-4.08-16.33,5.37-36.36,24.79-51.07,15.98-15.59-9.37-6.08-26.64,4.93-35.65,17.36-14.18,49.02-23.79,71.1-25.81v-.05Z"/>
    <polygon class="cls-1" points="489.25 519.95 538.82 348.2 574.47 455.04 489.25 519.95"/>
    <path class="cls-2" d="M538.94,186.2c50.28-1.06,54.95,75.12,6.31,80.7-56.77,6.52-60.44-79.59-6.31-80.7Z"/>
    <polygon class="cls-4" points="620.52 738.3 575.82 911.37 537.18 805.58 620.52 738.3"/>
  </g>
  <g>
    <path class="cls-5" d="M898.7,258.1c-89.49,149.78-188.43,293.77-280.5,441.94-123.96,88.84-244.49,182.61-368.57,271.28-16.12,11.51-39,30.54-55.45,39.27-3.02,1.59-5.08,3.94-9.1,2.97l285.23-436.12c135.3-99.71,266.81-211.13,405.73-305.73,3.02-2.06,21.12-15.1,22.73-13.6h-.07ZM536.97,582.41c-70.43,8.4-59.44,115.48,10.43,109.63,70.25-5.9,61.06-118.12-10.43-109.63Z"/>
    <path class="cls-5" d="M290.8,982.76l46.96-30.48c43.29,23.94,88.46,43.29,137.65,51.78,276,47.64,504.84-208.49,427.11-477.77-12.13-42.03-33.01-78.82-56.56-115.18.09-2.7,26.84-42.29,29.75-45.05,2.17-2.06,2-3.55,5.46-1.26,1.73,1.15,17.94,25.76,20.68,29.99,167.28,258.3,20.09,611.66-282.44,664.31-95.04,16.53-247.11-6.37-324.05-68.81-2.56-2.09-5.35-3.55-4.52-7.52h-.04Z"/>
    <path class="cls-5" d="M462.58,211.81c0,17.97,2.79,36.77,11.01,52.83-99.41,15.39-186.99,74.13-244.08,155.71-92.39,132.07-88.84,313.92,12.1,440.12l-33.42,47.34c-89.37-101.29-119-243.88-88.52-374.83,36.83-158.38,179.32-299.76,342.91-321.17h0Z"/>
    <path class="cls-5" d="M521.61,16.42c47.05-3.61,97.06,6.49,137.68,30.6,13.33,7.93,40.23,23.35,31.81,41.88-12.07,26.58-44.17-4.49-59.18-12.31-57.15-29.72-132.04-28.13-188.43,2.64-13.51,7.37-38.12,32.6-52.45,13.57s17.71-38.91,32.1-47.17c29.16-16.68,64.93-26.67,98.5-29.25l-.03.03h0Z"/>
    <path class="cls-5" d="M795.18,284.53l-1.35,4.55-48.02,30.72c-41.82-26.11-88.4-46.93-137.86-52.95l11.04-55.07c64.29,10.66,122.2,37.27,176.18,72.75h.01Z"/>
    <path class="cls-5" d="M523.81,97.92c28.31-2.61,61.73,2.06,87.17,15.04,15.42,7.84,46.31,31.57,21.03,46.9-14.48,8.78-26.87-6.46-40.18-12.33-29.84-13.16-61.97-14.27-92.98-4.08-16.33,5.37-36.36,24.79-51.07,15.98-15.59-9.37-6.08-26.64,4.93-35.65,17.36-14.18,49.02-23.79,71.1-25.81v-.05Z"/>
    <polygon class="cls-5" points="489.25 519.95 538.82 348.2 574.47 455.04 489.25 519.95"/>
    <path class="cls-5" d="M538.94,186.2c50.28-1.06,54.95,75.12,6.31,80.7-56.77,6.52-60.44-79.59-6.31-80.7Z"/>
    <polygon class="cls-5" points="620.52 738.3 575.82 911.37 537.18 805.58 620.52 738.3"/>
  </g>
</svg>