<?xml version="1.0" encoding="UTF-8"?>
<svg id="Layer_1" data-name="Layer 1" xmlns="http://www.w3.org/2000/svg" viewBox="0 0 1024 1024">
  <defs>
    <style>
      .cls-1 {
        fill: #014e75;
        stroke: #fff;
      }

      .cls-1, .cls-2, .cls-3 {
        stroke-miterlimit: 10;
      }

      .cls-2 {
        fill: #999;
      }

      .cls-2, .cls-3 {
        stroke: #000;
      }

      .cls-3 {
        fill: #0079c1;
      }
    </style>
  </defs>
  <path class="cls-3" d="M559.25,24.28l9.05,4.87,125.13,125.25-135.81,136.66v-111.29c-91.39-10.54-181.82,13.85-252.82,72.06-142.26,116.62-166.32,324.32-79.7,482.23,13.97,25.48,31.58,48.51,47.74,72.53l-34.88-21.56C12.66,618.24,86.02,273.45,314.29,146.75c75.41-41.85,159.17-55.75,244.96-47.18V24.28Z"/>
  <path class="cls-2" d="M477.42,912.98v82.65c0,.64-2.13,2.47-1.65,4.08l-3.29-.77-137.41-139.16,142.36-141.57v114.57c125.97,11.12,246.92-52.51,314.27-157.9,75.59-118.29,79.54-284.95,13.91-408.42l-28.66-47.43c58.15,42.12,100.47,103.57,124.4,171,25.82,72.75,27.59,142.72,7.69,217.24-50.28,188.25-234.66,325.85-431.61,305.7Z"/>
  <path class="cls-1" d="M678.73,292.71l-95.8,242.16c-9.62,23.16-34.65,38.52-54.02,53.99-51.63,41.23-105.26,80.12-157,121.23-2.56,2.03-17.08,16.17-18.87,14.67,10.47-25.92,20.77-51.98,30.69-78.13,20.06-52.89,37.99-109.42,59.74-161.21,8.47-20.18,9.76-23.13,26.66-37.16,60.16-49.98,136.08-106.98,200.62-151.26,1.56-1.07,6.59-5.59,7.98-4.28ZM509.79,482.94c-41.1,4.89-29.06,69.94,10.17,56.05,33.29-11.79,20.68-59.72-10.17-56.05Z"/>
</svg>