<?xml version="1.0" encoding="UTF-8"?>
<svg id="Layer_1" data-name="Layer 1" xmlns="http://www.w3.org/2000/svg" viewBox="0 0 400 130">
  <defs>
    <style>
      .cls-1 {
        fill: #014e75;
        stroke: #fff;
      }

      .cls-1, .cls-2 {
        stroke-miterlimit: 10;
      }

      .cls-2 {
        fill: #999;
        stroke: #000;
      }

      .cls-3 {
        fill: #0079c1;
      }
    </style>
  </defs>
  <g>
    <path class="cls-3" d="M347.09,4.84l1.12.6,15.43,15.45-16.75,16.86v-13.73c-11.27-1.3-22.43,1.71-31.18,8.89-17.55,14.38-20.51,40-9.83,59.48,1.72,3.14,3.9,5.98,5.89,8.95l-4.3-2.66c-27.79-20.57-18.74-63.1,9.42-78.72,9.3-5.16,19.63-6.88,30.21-5.82V4.84Z"/>
    <path d="M313.48,102.98l-6.27-3.88c-11.78-8.72-17.95-22.36-16.97-37.46,1.13-17.32,11.5-33.86,26.4-42.13,8.9-4.94,18.97-6.93,29.96-5.93V4.01l1.97,1.08,15.79,15.8-17.96,18.07v-14.49c-11.2-1.19-21.97,1.94-30.37,8.83-16.51,13.54-20.69,38.84-9.71,58.85,1.22,2.22,2.69,4.33,4.12,6.38.59.84,1.17,1.68,1.74,2.53l1.29,1.92ZM341.17,14.33c-8.72,0-16.78,2.03-24.04,6.06-14.62,8.11-24.78,24.33-25.89,41.32-.98,14.96,4.89,27.95,16.53,36.56l2.25,1.39-.39-.56c-1.44-2.07-2.93-4.2-4.18-6.47-11.21-20.43-6.93-46.27,9.95-60.11,8.71-7.14,19.92-10.34,31.56-9l.44.05v12.96l15.54-15.64-15.03-15.04-.31-.17v9l-.55-.06c-1.99-.2-3.95-.3-5.88-.3Z"/>
  </g>
  <path class="cls-2" d="M337,114.46v10.19c0,.08-.26.3-.2.5l-.41-.09-16.95-17.16,17.56-17.46v14.13c15.54,1.37,30.46-6.48,38.76-19.48,9.32-14.59,9.81-35.15,1.72-50.37l-3.53-5.85c7.17,5.2,12.39,12.77,15.34,21.09,3.18,8.97,3.4,17.6.95,26.79-6.2,23.22-28.94,40.19-53.24,37.71Z"/>
  <path class="cls-1" d="M366.79,33.84l-13.82,34.94c-1.39,3.34-5,5.56-7.8,7.79-7.45,5.95-15.19,11.56-22.65,17.49-.37.29-2.46,2.33-2.72,2.12,1.51-3.74,3-7.5,4.43-11.27,2.89-7.63,5.48-15.79,8.62-23.26,1.22-2.91,1.41-3.34,3.85-5.36,8.68-7.21,19.63-15.44,28.95-21.82.22-.15.95-.81,1.15-.62ZM342.41,61.29c-5.93.71-4.19,10.09,1.47,8.09,4.8-1.7,2.98-8.62-1.47-8.09Z"/>
  <g>
    <polygon class="cls-1" points="39.29 66 25.71 42.74 22.48 66 12.01 66 17.96 23.4 25.88 23.4 39.56 46.15 42.76 23.4 53.22 23.4 47.27 66 39.29 66"/>
    <path class="cls-1" d="M79.58,66l-1.53-8.28h-13.35l-3.87,8.28h-11.81l20.36-42.6h12.68l8.46,42.6h-10.93ZM76.33,48.36l-2.05-11.2-5.26,11.2h7.31Z"/>
    <polygon class="cls-1" points="100.31 66 91.67 23.4 102.67 23.4 107.59 50.64 120.16 23.4 132.09 23.4 111.56 66 100.31 66"/>
    <path class="cls-1" d="M145.49,66.65c-2.95,0-5.67-.5-8.09-1.49-2.44-1-4.51-2.44-6.17-4.29-1.67-1.86-2.82-4.05-3.44-6.53l-.21-.85,8.94-3.48.34.99c.66,1.96,1.74,3.47,3.3,4.61,1.54,1.13,3.24,1.69,5.19,1.69,1.09,0,2.04-.18,2.83-.54.77-.35,1.35-.8,1.78-1.39.4-.56.6-1.17.6-1.87,0-.62-.19-1.14-.57-1.57-.42-.48-1.17-.89-2.23-1.24l-7.21-2.46c-3.15-1.07-5.53-2.6-7.08-4.55-1.57-1.97-2.37-4.41-2.37-7.25,0-2.59.71-4.95,2.11-7.02,1.38-2.04,3.26-3.68,5.6-4.88,2.33-1.2,4.99-1.8,7.9-1.8,2.7,0,5.18.46,7.38,1.36,2.22.91,4.11,2.21,5.62,3.88,1.52,1.68,2.59,3.69,3.17,5.99l.22.85-8.9,3.49-.32-1.02c-.52-1.65-1.4-2.9-2.7-3.82-1.29-.91-2.87-1.37-4.68-1.37-1.06,0-1.98.17-2.74.49-.72.31-1.26.72-1.65,1.27-.37.52-.55,1.13-.55,1.87s.2,1.32.62,1.79c.46.52,1.24.98,2.31,1.36l7.03,2.45c3.13,1.07,5.53,2.57,7.11,4.44,1.62,1.92,2.44,4.32,2.44,7.13,0,2.59-.73,4.97-2.17,7.05-1.42,2.05-3.32,3.7-5.65,4.9-2.33,1.19-4.94,1.8-7.73,1.8Z"/>
    <polygon class="cls-1" points="171.04 66 173.61 47.43 162.85 23.4 174.16 23.4 179.8 36.51 189.06 23.4 201.79 23.4 184.16 47.62 181.62 66 171.04 66"/>
    <polygon class="cls-1" points="224.48 66 210.91 42.74 207.67 66 197.2 66 203.15 23.4 211.07 23.4 224.76 46.15 227.95 23.4 238.42 23.4 232.47 66 224.48 66"/>
    <path class="cls-1" d="M259.77,66.65c-2.91,0-5.64-.51-8.12-1.52-2.48-1.01-4.66-2.46-6.47-4.31-1.81-1.85-3.23-4.06-4.22-6.57-.99-2.5-1.49-5.29-1.49-8.27,0-3.17.56-6.19,1.68-8.98,1.11-2.79,2.71-5.29,4.76-7.41,2.04-2.12,4.48-3.81,7.24-5.02,2.77-1.21,5.84-1.83,9.12-1.83,3.1,0,5.9.53,8.33,1.58,2.43,1.05,4.47,2.47,6.09,4.22,1.63,1.76,2.77,3.74,3.39,5.88l.25.84-9.53,4.19-.32-1.09c-.53-1.77-1.48-3.19-2.93-4.32-1.41-1.11-3.28-1.67-5.54-1.67-1.74,0-3.35.34-4.79,1-1.45.67-2.73,1.62-3.81,2.84-1.09,1.23-1.95,2.69-2.56,4.34-.61,1.66-.92,3.51-.92,5.49,0,2.27.41,4.25,1.23,5.91.8,1.62,1.94,2.88,3.38,3.76,1.45.88,3.19,1.33,5.18,1.33,2.39,0,4.45-.61,6.12-1.8,1.69-1.21,2.93-2.73,3.7-4.51l.42-.99,9.07,4.74-.35.85c-.89,2.12-2.26,4.06-4.08,5.77-1.81,1.7-4,3.06-6.5,4.07-2.51,1.01-5.31,1.52-8.33,1.52Z"/>
  </g>
  <g>
    <path class="cls-2" d="M23.1,110.69c-2.34,0-4.54-.45-6.56-1.34-2.01-.89-3.75-2.12-5.16-3.67-1.41-1.55-2.47-3.36-3.15-5.38l-.29-.88,6.53-2.75.37.96c.78,1.98,1.92,3.52,3.39,4.57,1.48,1.05,3.15,1.57,5.1,1.57,1.12,0,2.11-.17,2.93-.51.78-.33,1.36-.76,1.77-1.34.4-.56.59-1.19.59-1.93,0-1.04-.27-1.82-.81-2.39-.6-.63-1.54-1.15-2.79-1.54l-6.63-2.08c-2.82-.87-5.02-2.25-6.53-4.08-1.53-1.86-2.31-4.08-2.31-6.58,0-2.18.55-4.12,1.63-5.78,1.07-1.64,2.57-2.95,4.44-3.88,1.85-.92,3.98-1.38,6.34-1.38s4.31.4,6.17,1.19c1.85.79,3.47,1.89,4.8,3.28,1.35,1.4,2.34,3.04,2.95,4.88l.29.87-6.44,2.83-.37-.99c-.63-1.68-1.57-2.93-2.87-3.83-1.31-.9-2.79-1.34-4.52-1.34-1.02,0-1.92.17-2.67.5-.71.32-1.25.76-1.63,1.34-.38.58-.57,1.24-.57,2.03,0,.91.28,1.69.86,2.4.59.72,1.54,1.28,2.83,1.67l6.17,1.94c2.96.9,5.25,2.23,6.79,3.96,1.58,1.77,2.38,4,2.38,6.61,0,2.15-.58,4.09-1.71,5.77-1.12,1.66-2.68,2.97-4.63,3.92-1.93.93-4.18,1.4-6.68,1.4Z"/>
    <path class="cls-2" d="M58.52,110.69c-2.68,0-5.2-.49-7.51-1.45-2.3-.96-4.35-2.32-6.09-4.05-1.74-1.73-3.12-3.78-4.1-6.1-.98-2.32-1.48-4.89-1.48-7.63s.5-5.32,1.47-7.65c.98-2.34,2.35-4.39,4.08-6.1,1.73-1.71,3.78-3.06,6.1-4,2.32-.95,4.85-1.42,7.53-1.42s5.25.48,7.55,1.42c2.3.94,4.36,2.3,6.1,4.03,1.74,1.73,3.11,3.78,4.08,6.1.96,2.32,1.45,4.89,1.45,7.63s-.5,5.31-1.48,7.63c-.98,2.32-2.35,4.37-4.07,6.09-1.73,1.73-3.78,3.09-6.1,4.05-2.32.96-4.86,1.45-7.53,1.45ZM58.52,79.35c-1.69,0-3.25.31-4.64.91-1.4.6-2.63,1.47-3.67,2.56-1.04,1.1-1.86,2.39-2.42,3.84-.57,1.46-.85,3.07-.85,4.8s.29,3.35.86,4.82c.56,1.46,1.38,2.75,2.42,3.83,1.04,1.08,2.28,1.94,3.7,2.54,1.41.61,2.97.91,4.62.91s3.25-.31,4.64-.91c1.4-.61,2.64-1.46,3.68-2.54,1.04-1.08,1.86-2.38,2.44-3.84.58-1.47.88-3.09.88-4.82s-.29-3.33-.88-4.79c-.58-1.45-1.41-2.75-2.45-3.85-1.04-1.1-2.27-1.96-3.67-2.56-1.4-.61-2.96-.91-4.65-.91Z"/>
    <polygon class="cls-2" points="81.94 110.13 81.94 72.86 89.53 72.86 89.53 103.15 104.77 103.15 104.77 110.13 81.94 110.13"/>
    <path class="cls-2" d="M120.72,110.69c-2.78,0-5.29-.6-7.46-1.78-2.19-1.19-3.92-2.84-5.16-4.91-1.24-2.07-1.87-4.46-1.87-7.09v-24.06h7.59v23.82c0,1.37.3,2.59.89,3.63.59,1.05,1.38,1.84,2.41,2.41,1.03.57,2.24.87,3.61.87s2.63-.29,3.65-.87c1.03-.58,1.82-1.37,2.41-2.41.59-1.04.89-2.26.89-3.63v-23.82h7.54v24.06c0,2.63-.62,5.02-1.84,7.09-1.22,2.07-2.95,3.73-5.14,4.92-2.17,1.18-4.7,1.78-7.51,1.78Z"/>
    <polygon class="cls-2" points="146.47 110.13 146.47 79.83 137.1 79.83 137.1 72.86 163.24 72.86 163.24 79.83 154.01 79.83 154.01 110.13 146.47 110.13"/>
    <rect class="cls-2" x="165.41" y="72.86" width="7.59" height="37.27"/>
    <path class="cls-2" d="M196.42,110.69c-2.68,0-5.2-.49-7.51-1.45-2.3-.96-4.35-2.32-6.09-4.05-1.74-1.73-3.12-3.78-4.1-6.1-.98-2.32-1.48-4.89-1.48-7.63s.5-5.32,1.47-7.65c.98-2.34,2.35-4.39,4.08-6.1,1.73-1.71,3.78-3.06,6.1-4,2.32-.95,4.85-1.42,7.53-1.42s5.25.48,7.55,1.42c2.3.94,4.36,2.3,6.1,4.03,1.74,1.73,3.11,3.78,4.08,6.1.96,2.32,1.45,4.89,1.45,7.63s-.5,5.31-1.48,7.63c-.98,2.32-2.35,4.37-4.07,6.09-1.73,1.73-3.78,3.09-6.1,4.05-2.32.96-4.86,1.45-7.53,1.45ZM196.42,79.35c-1.69,0-3.25.31-4.64.91-1.4.6-2.63,1.47-3.67,2.56-1.04,1.1-1.86,2.39-2.42,3.84-.57,1.46-.85,3.07-.85,4.8s.29,3.35.86,4.82c.56,1.46,1.38,2.75,2.42,3.83,1.04,1.08,2.28,1.94,3.7,2.54,1.41.61,2.97.91,4.62.91s3.25-.31,4.64-.91c1.4-.61,2.64-1.46,3.68-2.54,1.04-1.08,1.86-2.38,2.44-3.84.58-1.47.88-3.09.88-4.82s-.29-3.33-.88-4.79c-.58-1.45-1.41-2.75-2.45-3.85-1.04-1.1-2.27-1.96-3.67-2.56-1.4-.61-2.96-.91-4.65-.91Z"/>
    <polygon class="cls-2" points="243.53 110.13 227.44 87.59 227.44 110.13 219.85 110.13 219.85 72.86 225.86 72.86 242.01 95.15 242.01 72.86 249.55 72.86 249.55 110.13 243.53 110.13"/>
    <path class="cls-2" d="M268.19,110.69c-2.34,0-4.54-.45-6.56-1.34-2.01-.89-3.75-2.12-5.16-3.67-1.42-1.55-2.47-3.36-3.15-5.38l-.29-.88,6.53-2.75.37.96c.78,1.99,1.92,3.52,3.39,4.57,1.48,1.05,3.15,1.57,5.1,1.57,1.12,0,2.11-.17,2.93-.51.78-.33,1.36-.76,1.77-1.34.4-.56.59-1.19.59-1.93,0-1.04-.27-1.82-.81-2.39-.6-.63-1.54-1.15-2.79-1.54l-6.63-2.08c-2.83-.88-5.02-2.25-6.53-4.08-1.53-1.86-2.31-4.08-2.31-6.58,0-2.18.55-4.12,1.63-5.78,1.07-1.64,2.57-2.95,4.44-3.88,1.85-.92,3.98-1.38,6.34-1.38s4.31.4,6.17,1.19c1.85.79,3.47,1.89,4.8,3.28,1.34,1.4,2.34,3.04,2.95,4.87l.29.87-6.44,2.83-.37-.99c-.63-1.68-1.57-2.94-2.88-3.83-1.31-.9-2.79-1.34-4.52-1.34-1.02,0-1.92.17-2.67.5-.71.32-1.25.76-1.63,1.34-.38.58-.57,1.24-.57,2.03,0,.91.28,1.69.86,2.4.59.72,1.55,1.28,2.83,1.66l6.17,1.95c2.96.9,5.25,2.23,6.79,3.96,1.58,1.78,2.38,4,2.38,6.61,0,2.15-.58,4.09-1.71,5.77-1.12,1.66-2.68,2.97-4.63,3.92-1.93.93-4.18,1.4-6.68,1.4Z"/>
  </g>
</svg>