<?xml version="1.0" encoding="UTF-8"?>
<svg id="Layer_1" data-name="Layer 1" xmlns="http://www.w3.org/2000/svg" viewBox="0 0 504.54 144.85">
  <defs>
    <style>
      .cls-1, .cls-2, .cls-3, .cls-4, .cls-5, .cls-6 {
        font-size: 70.19px;
      }

      .cls-1, .cls-2, .cls-3, .cls-4, .cls-5, .cls-6, .cls-7, .cls-8, .cls-9, .cls-10 {
        font-family: Arial-BoldMT, Arial;
        font-weight: 700;
      }

      .cls-1, .cls-3, .cls-4 {
        fill: #053d6f;
      }

      .cls-1, .cls-3, .cls-4, .cls-8, .cls-9 {
        isolation: isolate;
      }

      .cls-11, .cls-12, .cls-2, .cls-13, .cls-5, .cls-14, .cls-6, .cls-7, .cls-15, .cls-10 {
        stroke-width: .75px;
      }

      .cls-11, .cls-2, .cls-5, .cls-6, .cls-7, .cls-10 {
        fill: none;
        stroke: #fff;
      }

      .cls-12 {
        fill: #0070a9;
        stroke: #0070a9;
      }

      .cls-12, .cls-13, .cls-14, .cls-15 {
        stroke-miterlimit: 10;
      }

      .cls-3, .cls-5 {
        letter-spacing: -.02em;
      }

      .cls-13 {
        fill: #004079;
        stroke: #004079;
      }

      .cls-4, .cls-6 {
        letter-spacing: -.08em;
      }

      .cls-14 {
        fill: #0065ba;
        stroke: #0065ba;
      }

      .cls-7, .cls-8, .cls-9, .cls-10 {
        font-size: 51.64px;
      }

      .cls-8, .cls-9 {
        fill: #606060;
      }

      .cls-9, .cls-10 {
        letter-spacing: -.04em;
      }

      .cls-15 {
        fill: #00407b;
        stroke: #00407b;
      }
    </style>
  </defs>
  <g>
    <g>
      <text class="cls-1" transform="translate(10.06 77.59)"><tspan x="0" y="0">N</tspan></text>
      <text class="cls-4" transform="translate(62.08 77.59)"><tspan x="0" y="0">A</tspan></text>
      <text class="cls-1" transform="translate(108.89 77.59)"><tspan x="0" y="0">V</tspan></text>
      <text class="cls-3" transform="translate(157.68 77.59)"><tspan x="0" y="0">S</tspan></text>
      <text class="cls-1" transform="translate(201.54 77.59)"><tspan x="0" y="0">YNC</tspan></text>
      <text class="cls-8" transform="translate(26.26 128.14)"><tspan x="0" y="0">SO</tspan></text>
      <text class="cls-9" transform="translate(99.02 128.14)"><tspan x="0" y="0">L</tspan></text>
      <text class="cls-8" transform="translate(127.03 128.14)"><tspan x="0" y="0">UTIONS</tspan></text>
    </g>
    <g>
      <text class="cls-2" transform="translate(10.06 77.59)"><tspan x="0" y="0">N</tspan></text>
      <text class="cls-6" transform="translate(62.08 77.59)"><tspan x="0" y="0">A</tspan></text>
      <text class="cls-2" transform="translate(108.89 77.59)"><tspan x="0" y="0">V</tspan></text>
      <text class="cls-5" transform="translate(157.68 77.59)"><tspan x="0" y="0">S</tspan></text>
      <text class="cls-2" transform="translate(201.54 77.59)"><tspan x="0" y="0">YNC</tspan></text>
      <text class="cls-7" transform="translate(26.26 128.14)"><tspan x="0" y="0">SO</tspan></text>
      <text class="cls-10" transform="translate(99.02 128.14)"><tspan x="0" y="0">L</tspan></text>
      <text class="cls-7" transform="translate(127.03 128.14)"><tspan x="0" y="0">UTIONS</tspan></text>
    </g>
  </g>
  <g>
    <path class="cls-14" d="M470.41,35.35c-11.77,19.7-24.78,38.64-36.89,58.12-16.3,11.68-32.16,24.02-48.47,35.68-2.12,1.51-5.13,4.02-7.29,5.16-.4.21-.67.52-1.2.39l37.51-57.36c17.79-13.11,35.09-27.77,53.36-40.21.4-.27,2.78-1.99,2.99-1.79h0ZM422.83,78c-9.26,1.1-7.82,15.19,1.37,14.42,9.24-.78,8.03-15.54-1.37-14.42Z"/>
    <path class="cls-13" d="M390.46,130.66l6.18-4.01c5.69,3.15,11.63,5.69,18.1,6.81,36.3,6.27,66.4-27.42,56.17-62.84-1.6-5.53-4.34-10.37-7.44-15.15.01-.36,3.53-5.56,3.91-5.92.29-.27.26-.47.72-.17.23.15,2.36,3.39,2.72,3.94,22,33.97,2.64,80.45-37.15,87.37-12.5,2.17-32.5-.84-42.62-9.05-.34-.27-.7-.47-.59-.99h0Z"/>
    <path class="cls-13" d="M413.05,29.26c0,2.36.37,4.84,1.45,6.95-13.07,2.02-24.59,9.75-32.1,20.48-12.15,17.37-11.68,41.29,1.59,57.88l-4.4,6.23c-11.75-13.32-15.65-32.08-11.64-49.3,4.84-20.83,23.58-39.42,45.1-42.24h0Z"/>
    <path class="cls-15" d="M420.81,3.56c6.19-.47,12.77.85,18.11,4.02,1.75,1.04,5.29,3.07,4.18,5.51-1.59,3.5-5.81-.59-7.78-1.62-7.52-3.91-17.37-3.7-24.78.35-1.78.97-5.01,4.29-6.9,1.78-1.88-2.5,2.33-5.12,4.22-6.2,3.84-2.19,8.54-3.51,12.95-3.85h0Z"/>
    <path class="cls-13" d="M456.79,38.83l-.18.6-6.32,4.04c-5.5-3.43-11.63-6.17-18.13-6.96l1.45-7.24c8.46,1.4,16.07,4.9,23.17,9.57h0Z"/>
    <path class="cls-15" d="M421.1,14.28c3.72-.34,8.12.27,11.46,1.98,2.03,1.03,6.09,4.15,2.77,6.17-1.9,1.15-3.53-.85-5.28-1.62-3.92-1.73-8.15-1.88-12.23-.54-2.15.71-4.78,3.26-6.72,2.1-2.05-1.23-.8-3.5.65-4.69,2.28-1.86,6.45-3.13,9.35-3.39,0,0,0,0,0,0Z"/>
    <polygon class="cls-14" points="416.56 69.79 423.08 47.2 427.76 61.25 416.56 69.79"/>
    <path class="cls-15" d="M423.09,25.89c6.61-.14,7.23,9.88.83,10.61-7.47.86-7.95-10.47-.83-10.61Z"/>
    <polygon class="cls-12" points="433.82 98.51 427.94 121.27 422.86 107.35 433.82 98.51"/>
  </g>
  <g>
    <path class="cls-11" d="M470.41,35.35c-11.77,19.7-24.78,38.64-36.89,58.12-16.3,11.68-32.16,24.02-48.47,35.68-2.12,1.51-5.13,4.02-7.29,5.16-.4.21-.67.52-1.2.39l37.51-57.36c17.79-13.11,35.09-27.77,53.36-40.21.4-.27,2.78-1.99,2.99-1.79h0ZM422.83,78c-9.26,1.1-7.82,15.19,1.37,14.42,9.24-.78,8.03-15.54-1.37-14.42Z"/>
    <path class="cls-11" d="M390.46,130.66l6.18-4.01c5.69,3.15,11.63,5.69,18.1,6.81,36.3,6.27,66.4-27.42,56.17-62.84-1.6-5.53-4.34-10.37-7.44-15.15.01-.36,3.53-5.56,3.91-5.92.29-.27.26-.47.72-.17.23.15,2.36,3.39,2.72,3.94,22,33.97,2.64,80.45-37.15,87.37-12.5,2.17-32.5-.84-42.62-9.05-.34-.27-.7-.47-.59-.99h0Z"/>
    <path class="cls-11" d="M413.05,29.26c0,2.36.37,4.84,1.45,6.95-13.07,2.02-24.59,9.75-32.1,20.48-12.15,17.37-11.68,41.29,1.59,57.88l-4.4,6.23c-11.75-13.32-15.65-32.08-11.64-49.3,4.84-20.83,23.58-39.42,45.1-42.24h0Z"/>
    <path class="cls-11" d="M420.81,3.56c6.19-.47,12.77.85,18.11,4.02,1.75,1.04,5.29,3.07,4.18,5.51-1.59,3.5-5.81-.59-7.78-1.62-7.52-3.91-17.37-3.7-24.78.35-1.78.97-5.01,4.29-6.9,1.78-1.88-2.5,2.33-5.12,4.22-6.2,3.84-2.19,8.54-3.51,12.95-3.85h0Z"/>
    <path class="cls-11" d="M456.79,38.83l-.18.6-6.32,4.04c-5.5-3.43-11.63-6.17-18.13-6.96l1.45-7.24c8.46,1.4,16.07,4.9,23.17,9.57h0Z"/>
    <path class="cls-11" d="M421.1,14.28c3.72-.34,8.12.27,11.46,1.98,2.03,1.03,6.09,4.15,2.77,6.17-1.9,1.15-3.53-.85-5.28-1.62-3.92-1.73-8.15-1.88-12.23-.54-2.15.71-4.78,3.26-6.72,2.1-2.05-1.23-.8-3.5.65-4.69,2.28-1.86,6.45-3.13,9.35-3.39,0,0,0,0,0,0Z"/>
    <polygon class="cls-11" points="416.56 69.79 423.08 47.2 427.76 61.25 416.56 69.79"/>
    <path class="cls-11" d="M423.09,25.89c6.61-.14,7.23,9.88.83,10.61-7.47.86-7.95-10.47-.83-10.61Z"/>
    <polygon class="cls-11" points="433.82 98.51 427.94 121.27 422.86 107.35 433.82 98.51"/>
  </g>
</svg>