<?xml version="1.0" encoding="UTF-8"?>
<svg id="Layer_1" data-name="Layer 1" xmlns="http://www.w3.org/2000/svg" viewBox="0 0 504.54 144.85">
  <defs>
    <style>
      .cls-1, .cls-2 {
        fill: #053d6f;
        stroke: #053d6f;
      }

      .cls-1, .cls-2, .cls-3, .cls-4, .cls-5 {
        stroke-miterlimit: 10;
      }

      .cls-2 {
        font-size: 72.96px;
      }

      .cls-2, .cls-6 {
        font-family: PlusJakartaSans-Bold, 'Plus Jakarta Sans';
        font-weight: 700;
      }

      .cls-3 {
        fill: #0866b5;
        stroke: #0866b5;
      }

      .cls-4 {
        fill: #999fa2;
        stroke: #999fa2;
      }

      .cls-7 {
        letter-spacing: -.04em;
      }

      .cls-6 {
        fill: #606060;
        font-size: 53.68px;
      }

      .cls-8 {
        letter-spacing: 0em;
      }

      .cls-9 {
        letter-spacing: -.02em;
      }

      .cls-5 {
        fill: #073f71;
        stroke: #073f71;
      }

      .cls-10 {
        letter-spacing: -.02em;
      }
    </style>
  </defs>
  <g>
    <path class="cls-3" d="M494,33.75c-12.28,20.55-25.85,40.3-38.48,60.63-17,12.19-33.54,25.05-50.56,37.22-2.21,1.58-5.35,4.19-7.61,5.39-.41.22-.7.54-1.25.41l39.13-59.83c18.56-13.68,36.6-28.96,55.66-41.94.42-.28,2.9-2.07,3.12-1.87ZM444.37,78.24c-9.66,1.15-8.15,15.84,1.43,15.04,9.64-.81,8.38-16.21-1.43-15.04Z"/>
    <path class="cls-1" d="M410.6,133.16l6.44-4.18c5.94,3.28,12.14,5.94,18.88,7.1,37.86,6.54,69.26-28.6,58.59-65.54-1.67-5.77-4.53-10.81-7.76-15.8.01-.37,3.68-5.8,4.08-6.18.3-.28.27-.49.75-.17.24.16,2.46,3.53,2.84,4.11,22.95,35.43,2.76,83.91-38.75,91.13-13.04,2.27-33.9-.88-44.45-9.44-.35-.29-.73-.49-.62-1.03Z"/>
    <path class="cls-1" d="M434.17,27.4c0,2.47.38,5.04,1.51,7.25-13.64,2.11-25.65,10.17-33.48,21.36-12.68,18.12-12.19,43.06,1.66,60.38l-4.58,6.49c-12.26-13.89-16.32-33.45-12.14-51.42,5.05-21.73,24.6-41.12,47.04-44.06Z"/>
    <path class="cls-5" d="M442.27.6c6.45-.5,13.32.89,18.89,4.2,1.83,1.09,5.52,3.2,4.36,5.75-1.66,3.65-6.06-.62-8.12-1.69-7.84-4.08-18.11-3.86-25.85.36-1.85,1.01-5.23,4.47-7.2,1.86s2.43-5.34,4.4-6.47c4-2.29,8.91-3.66,13.51-4.01Z"/>
    <path class="cls-1" d="M479.79,37.38l-.19.62-6.59,4.22c-5.74-3.58-12.13-6.44-18.91-7.26l1.52-7.56c8.82,1.46,16.77,5.11,24.17,9.98Z"/>
    <path class="cls-5" d="M442.57,11.78c3.88-.36,8.47.28,11.96,2.06,2.11,1.08,6.35,4.33,2.88,6.43-1.99,1.21-3.69-.89-5.51-1.69-4.09-1.8-8.5-1.96-12.75-.56-2.24.74-4.99,3.4-7.01,2.19-2.14-1.29-.83-3.65.68-4.89,2.38-1.95,6.72-3.26,9.75-3.54Z"/>
    <polygon class="cls-3" points="437.83 69.67 444.63 46.11 449.52 60.77 437.83 69.67"/>
    <path class="cls-5" d="M444.64,23.89c6.9-.14,7.54,10.31.87,11.07-7.79.89-8.29-10.92-.87-11.07Z"/>
    <polygon class="cls-4" points="455.84 99.63 449.7 123.37 444.4 108.86 455.84 99.63"/>
  </g>
  <text class="cls-2" transform="translate(.5 77.79)"><tspan x="0" y="0">N</tspan><tspan class="cls-7" x="54.07" y="0">A</tspan><tspan class="cls-8" x="102.73" y="0">V</tspan><tspan class="cls-10" x="153.44" y="0">S</tspan><tspan x="199.04" y="0">YNC</tspan></text>
  <text class="cls-6" transform="translate(17.33 130.34)"><tspan x="0" y="0">SO</tspan><tspan class="cls-9" x="81.87" y="0">L</tspan><tspan x="109.95" y="0">UTIONS</tspan></text>
</svg>